[hls @ 0000018cfea94f80] Opening 'https://tv.vodu.me:1995/bein2/iqs/tracks-v1a1/2025/08/04/19/55/17-10420.ts' for reading
[hls @ 0000018cfea94f80] Opening 'https://tv.vodu.me:1995/bein2/iqs/tracks-v1a1/2025/08/04/19/55/27-15220.ts' for reading
Input #0, hls, from 'https://tv.vodu.me:1995/bein2/iqs/tracks-v1a1/mono.m3u8':
  Duration: N/A, start: 81786.266922, bitrate: N/A
  Program 0 
    Metadata:
      variant_bitrate : 0
  Stream #0:0: Video: h264 (High) ([27][0][0][0] / 0x001B), yuv420p(tv, bt709), 1920x1080 [SAR 1:1 DAR 16:9], 24 fps, 50 tbr, 90k tbn, start 81786.266922
    Metadata:
      variant_bitrate : 0
  Stream #0:1(eng): Audio: aac (LC) ([15][0][0][0] / 0x000F), 44100 Hz, stereo, fltp, start 81786.287878
    Metadata:
      variant_bitrate : 0
Stream mapping:
  Stream #0:0 -> #0:0 (copy)
  Stream #0:1 -> #0:1 (copy)
Output #0, hls, to 'live\channel_6\stream.m3u8':
  Metadata:
    encoder         : Lavf62.1.103
  Stream #0:0: Video: h264 (High) ([27][0][0][0] / 0x001B), yuv420p(tv, bt709), 1920x1080 [SAR 1:1 DAR 16:9], q=2-31, 24 fps, 50 tbr, 90k tbn
    Metadata:
      variant_bitrate : 0
  Stream #0:1(eng): Audio: aac (LC) ([15][0][0][0] / 0x000F), 44100 Hz, stereo, fltp
    Metadata:
      variant_bitrate : 0
Press [q] to stop, [?] for help
[vist#0:0/h264 @ 0000018cff663680] Resumed reading at pts 0.000 with rate 1.050 after a lag of 0.500s
frame=   13 fps=0.0 q=-1.0 size=N/A time=00:00:00.54 bitrate=N/A speed=1.08x elapsed=0:00:00.50    frame=   26 fps= 26 q=-1.0 size=N/A time=00:00:01.04 bitrate=N/A speed=1.02x elapsed=0:00:01.01    frame=   39 fps= 25 q=-1.0 size=N/A time=00:00:01.58 bitrate=N/A speed=1.03x elapsed=0:00:01.53    frame=   52 fps= 25 q=-1.0 size=N/A time=00:00:02.14 bitrate=N/A speed=1.04x elapsed=0:00:02.05    frame=   64 fps= 25 q=-1.0 size=N/A time=00:00:02.68 bitrate=N/A speed=1.05x elapsed=0:00:02.56    frame=   77 fps= 25 q=-1.0 size=N/A time=00:00:03.22 bitrate=N/A speed=1.05x elapsed=0:00:03.08    frame=   91 fps= 25 q=-1.0 size=N/A time=00:00:03.76 bitrate=N/A speed=1.05x elapsed=0:00:03.59    frame=  103 fps= 25 q=-1.0 size=N/A time=00:00:04.30 bitrate=N/A speed=1.05x elapsed=0:00:04.11    frame=  117 fps= 25 q=-1.0 size=N/A time=00:00:04.84 bitrate=N/A speed=1.05x elapsed=0:00:04.63    frame=  130 fps= 25 q=-1.0 size=N/A time=00:00:05.42 bitrate=N/A speed=1.05x elapsed=0:00:05.14    frame=  143 fps= 25 q=-1.0 size=N/A time=00:00:05.96 bitrate=N/A speed=1.05x elapsed=0:00:05.65    frame=  155 fps= 25 q=-1.0 size=N/A time=00:00:06.46 bitrate=N/A speed=1.05x elapsed=0:00:06.17    frame=  169 fps= 25 q=-1.0 size=N/A time=00:00:07.00 bitrate=N/A speed=1.05x elapsed=0:00:06.69    frame=  181 fps= 25 q=-1.0 size=N/A time=00:00:07.54 bitrate=N/A speed=1.05x elapsed=0:00:07.20    frame=  195 fps= 25 q=-1.0 size=N/A time=00:00:08.08 bitrate=N/A speed=1.05x elapsed=0:00:07.72    frame=  208 fps= 25 q=-1.0 size=N/A time=00:00:08.64 bitrate=N/A speed=1.05x elapsed=0:00:08.23    frame=  220 fps= 25 q=-1.0 size=N/A time=00:00:09.18 bitrate=N/A speed=1.05x elapsed=0:00:08.75    frame=  234 fps= 25 q=-1.0 size=N/A time=00:00:09.72 bitrate=N/A speed=1.05x elapsed=0:00:09.26    frame=  247 fps= 25 q=-1.0 size=N/A time=00:00:10.26 bitrate=N/A speed=1.05x elapsed=0:00:09.78    [https @ 0000018cfeb58d40] Opening 'https://tv.vodu.me:1995/bein2/iqs/tracks-v1a1/2025/08/04/19/55/43-10420.ts' for reading
[hls @ 0000018cff082c40] Opening 'live\channel_6\stream0.ts' for writing
[hls @ 0000018cff082c40] Opening 'live\channel_6\stream.m3u8.tmp' for writing
frame=  260 fps= 25 q=-1.0 size=N/A time=00:00:10.80 bitrate=N/A speed=1.05x elapsed=0:00:10.30    frame=  272 fps= 25 q=-1.0 size=N/A time=00:00:11.30 bitrate=N/A speed=1.04x elapsed=0:00:10.81    frame=  284 fps= 25 q=-1.0 size=N/A time=00:00:11.80 bitrate=N/A speed=1.04x elapsed=0:00:11.33    frame=  296 fps= 25 q=-1.0 size=N/A time=00:00:12.34 bitrate=N/A speed=1.04x elapsed=0:00:11.84    frame=  309 fps= 25 q=-1.0 size=N/A time=00:00:12.88 bitrate=N/A speed=1.04x elapsed=0:00:12.36    frame=  321 fps= 25 q=-1.0 size=N/A time=00:00:13.38 bitrate=N/A speed=1.04x elapsed=0:00:12.87    frame=  334 fps= 25 q=-1.0 size=N/A time=00:00:13.88 bitrate=N/A speed=1.04x elapsed=0:00:13.39    frame=  345 fps= 25 q=-1.0 size=N/A time=00:00:14.38 bitrate=N/A speed=1.03x elapsed=0:00:13.90    frame=  358 fps= 25 q=-1.0 size=N/A time=00:00:14.92 bitrate=N/A speed=1.03x elapsed=0:00:14.42    [vost#0:0/copy @ 0000018cff09e380] Non-monotonic DTS; previous: 1369800, current: 1369800; changing to 1369801. This may result in incorrect timestamps in the output file.
[hls @ 0000018cff082c40] Opening 'live\channel_6\stream1.ts' for writing
[hls @ 0000018cff082c40] Opening 'live\channel_6\stream.m3u8.tmp' for writing
frame=  372 fps= 25 q=-1.0 size=N/A time=00:00:15.42 bitrate=N/A speed=1.03x elapsed=0:00:14.94    frame=  384 fps= 25 q=-1.0 size=N/A time=00:00:15.96 bitrate=N/A speed=1.03x elapsed=0:00:15.45    frame=  396 fps= 25 q=-1.0 size=N/A time=00:00:16.46 bitrate=N/A speed=1.03x elapsed=0:00:15.97    frame=  409 fps= 25 q=-1.0 size=N/A time=00:00:16.96 bitrate=N/A speed=1.03x elapsed=0:00:16.48    frame=  420 fps= 25 q=-1.0 size=N/A time=00:00:17.46 bitrate=N/A speed=1.03x elapsed=0:00:17.00    frame=  433 fps= 25 q=-1.0 size=N/A time=00:00:18.00 bitrate=N/A speed=1.03x elapsed=0:00:17.51    frame=  445 fps= 25 q=-1.0 size=N/A time=00:00:18.50 bitrate=N/A speed=1.03x elapsed=0:00:18.03    frame=  458 fps= 25 q=-1.0 size=N/A time=00:00:19.06 bitrate=N/A speed=1.03x elapsed=0:00:18.55    frame=  471 fps= 25 q=-1.0 size=N/A time=00:00:19.56 bitrate=N/A speed=1.03x elapsed=0:00:19.06    frame=  482 fps= 25 q=-1.0 size=N/A time=00:00:20.06 bitrate=N/A speed=1.02x elapsed=0:00:19.58    frame=  495 fps= 25 q=-1.0 size=N/A time=00:00:20.60 bitrate=N/A speed=1.03x elapsed=0:00:20.09    frame=  508 fps= 25 q=-1.0 size=N/A time=00:00:21.10 bitrate=N/A speed=1.02x elapsed=0:00:20.61    frame=  520 fps= 25 q=-1.0 size=N/A time=00:00:21.64 bitrate=N/A speed=1.02x elapsed=0:00:21.12    frame=  533 fps= 25 q=-1.0 size=N/A time=00:00:22.14 bitrate=N/A speed=1.02x elapsed=0:00:21.64    frame=  545 fps= 25 q=-1.0 size=N/A time=00:00:22.64 bitrate=N/A speed=1.02x elapsed=0:00:22.15    frame=  557 fps= 25 q=-1.0 size=N/A time=00:00:23.18 bitrate=N/A speed=1.02x elapsed=0:00:22.67    frame=  569 fps= 25 q=-1.0 size=N/A time=00:00:23.68 bitrate=N/A speed=1.02x elapsed=0:00:23.19    frame=  582 fps= 25 q=-1.0 size=N/A time=00:00:24.22 bitrate=N/A speed=1.02x elapsed=0:00:23.70    frame=  595 fps= 25 q=-1.0 size=N/A time=00:00:24.72 bitrate=N/A speed=1.02x elapsed=0:00:24.22    frame=  606 fps= 24 q=-1.0 size=N/A time=00:00:25.22 bitrate=N/A speed=1.02x elapsed=0:00:24.73    [https @ 0000018cfefb11c0] Opening 'https://tv.vodu.me:1995/bein2/iqs/tracks-v1a1/2025/08/04/19/55/53-10400.ts' for reading
[hls @ 0000018cff082c40] Opening 'live\channel_6\stream2.ts' for writing
[hls @ 0000018cff082c40] Opening 'live\channel_6\stream.m3u8.tmp' for writing
frame=  619 fps= 25 q=-1.0 size=N/A time=00:00:25.76 bitrate=N/A speed=1.02x elapsed=0:00:25.25    frame=  631 fps= 24 q=-1.0 size=N/A time=00:00:26.26 bitrate=N/A speed=1.02x elapsed=0:00:25.76    frame=  644 fps= 25 q=-1.0 size=N/A time=00:00:26.80 bitrate=N/A speed=1.02x elapsed=0:00:26.28    frame=  656 fps= 24 q=-1.0 size=N/A time=00:00:27.30 bitrate=N/A speed=1.02x elapsed=0:00:26.80    frame=  669 fps= 24 q=-1.0 size=N/A time=00:00:27.80 bitrate=N/A speed=1.02x elapsed=0:00:27.31    frame=  681 fps= 24 q=-1.0 size=N/A time=00:00:28.30 bitrate=N/A speed=1.02x elapsed=0:00:27.83    frame=  693 fps= 24 q=-1.0 size=N/A time=00:00:28.84 bitrate=N/A speed=1.02x elapsed=0:00:28.34    frame=  706 fps= 24 q=-1.0 size=N/A time=00:00:29.38 bitrate=N/A speed=1.02x elapsed=0:00:28.86    frame=  718 fps= 24 q=-1.0 size=N/A time=00:00:29.88 bitrate=N/A speed=1.02x elapsed=0:00:29.37    frame=  730 fps= 24 q=-1.0 size=N/A time=00:00:30.38 bitrate=N/A speed=1.02x elapsed=0:00:29.89    frame=  742 fps= 24 q=-1.0 size=N/A time=00:00:30.88 bitrate=N/A speed=1.02x elapsed=0:00:30.40    frame=  755 fps= 24 q=-1.0 size=N/A time=00:00:31.42 bitrate=N/A speed=1.02x elapsed=0:00:30.92    frame=  768 fps= 24 q=-1.0 size=N/A time=00:00:31.96 bitrate=N/A speed=1.02x elapsed=0:00:31.44    frame=  780 fps= 24 q=-1.0 size=N/A time=00:00:32.46 bitrate=N/A speed=1.02x elapsed=0:00:31.95    frame=  792 fps= 24 q=-1.0 size=N/A time=00:00:32.96 bitrate=N/A speed=1.02x elapsed=0:00:32.47    frame=  804 fps= 24 q=-1.0 size=N/A time=00:00:33.46 bitrate=N/A speed=1.01x elapsed=0:00:32.98    frame=  817 fps= 24 q=-1.0 size=N/A time=00:00:34.00 bitrate=N/A speed=1.01x elapsed=0:00:33.50    frame=  829 fps= 24 q=-1.0 size=N/A time=00:00:34.50 bitrate=N/A speed=1.01x elapsed=0:00:34.01    frame=  842 fps= 24 q=-1.0 size=N/A time=00:00:35.00 bitrate=N/A speed=1.01x elapsed=0:00:34.53    frame=  854 fps= 24 q=-1.0 size=N/A time=00:00:35.56 bitrate=N/A speed=1.01x elapsed=0:00:35.05    [https @ 0000018cfeb58d40] Opening 'https://tv.vodu.me:1995/bein2/iqs/tracks-v1a1/2025/08/04/19/56/03-10420.ts' for reading
frame=  866 fps= 24 q=-1.0 size=N/A time=00:00:36.06 bitrate=N/A speed=1.01x elapsed=0:00:35.56    [hls @ 0000018cff082c40] Opening 'live\channel_6\stream3.ts' for writing
[hls @ 0000018cff082c40] Opening 'live\channel_6\stream.m3u8.tmp' for writing
frame=  879 fps= 24 q=-1.0 size=N/A time=00:00:36.60 bitrate=N/A speed=1.01x elapsed=0:00:36.08    frame=  891 fps= 24 q=-1.0 size=N/A time=00:00:37.10 bitrate=N/A speed=1.01x elapsed=0:00:36.59    frame=  904 fps= 24 q=-1.0 size=N/A time=00:00:37.60 bitrate=N/A speed=1.01x elapsed=0:00:37.11    frame=  915 fps= 24 q=-1.0 size=N/A time=00:00:38.10 bitrate=N/A speed=1.01x elapsed=0:00:37.62    frame=  928 fps= 24 q=-1.0 size=N/A time=00:00:38.64 bitrate=N/A speed=1.01x elapsed=0:00:38.14    frame=  941 fps= 24 q=-1.0 size=N/A time=00:00:39.18 bitrate=N/A speed=1.01x elapsed=0:00:38.66    frame=  953 fps= 24 q=-1.0 size=N/A time=00:00:39.68 bitrate=N/A speed=1.01x elapsed=0:00:39.17    frame=  966 fps= 24 q=-1.0 size=N/A time=00:00:40.18 bitrate=N/A speed=1.01x elapsed=0:00:39.69    frame=  978 fps= 24 q=-1.0 size=N/A time=00:00:40.68 bitrate=N/A speed=1.01x elapsed=0:00:40.20    frame=  990 fps= 24 q=-1.0 size=N/A time=00:00:41.22 bitrate=N/A speed=1.01x elapsed=0:00:40.72    frame= 1003 fps= 24 q=-1.0 size=N/A time=00:00:41.76 bitrate=N/A speed=1.01x elapsed=0:00:41.23    frame= 1015 fps= 24 q=-1.0 size=N/A time=00:00:42.26 bitrate=N/A speed=1.01x elapsed=0:00:41.75    frame= 1028 fps= 24 q=-1.0 size=N/A time=00:00:42.76 bitrate=N/A speed=1.01x elapsed=0:00:42.26    frame= 1040 fps= 24 q=-1.0 size=N/A time=00:00:43.26 bitrate=N/A speed=1.01x elapsed=0:00:42.78    frame= 1052 fps= 24 q=-1.0 size=N/A time=00:00:43.80 bitrate=N/A speed=1.01x elapsed=0:00:43.30    frame= 1064 fps= 24 q=-1.0 size=N/A time=00:00:44.30 bitrate=N/A speed=1.01x elapsed=0:00:43.81    frame= 1077 fps= 24 q=-1.0 size=N/A time=00:00:44.84 bitrate=N/A speed=1.01x elapsed=0:00:44.33    frame= 1089 fps= 24 q=-1.0 size=N/A time=00:00:45.34 bitrate=N/A speed=1.01x elapsed=0:00:44.84    frame= 1101 fps= 24 q=-1.0 size=N/A time=00:00:45.84 bitrate=N/A speed=1.01x elapsed=0:00:45.36    frame= 1114 fps= 24 q=-1.0 size=N/A time=00:00:46.38 bitrate=N/A speed=1.01x elapsed=0:00:45.87    [https @ 0000018c803d1b00] Opening 'https://tv.vodu.me:1995/bein2/iqs/tracks-v1a1/mono.m3u8' for reading
[https @ 0000018cfefb11c0] Opening 'https://tv.vodu.me:1995/bein2/iqs/tracks-v1a1/2025/08/04/19/56/14-10420.ts' for reading
[hls @ 0000018cff082c40] Opening 'live\channel_6\stream4.ts' for writing
[hls @ 0000018cff082c40] Opening 'live\channel_6\stream.m3u8.tmp' for writing
frame= 1127 fps= 24 q=-1.0 size=N/A time=00:00:46.88 bitrate=N/A speed=1.01x elapsed=0:00:46.39    frame= 1139 fps= 24 q=-1.0 size=N/A time=00:00:47.42 bitrate=N/A speed=1.01x elapsed=0:00:46.91    frame= 1152 fps= 24 q=-1.0 size=N/A time=00:00:47.92 bitrate=N/A speed=1.01x elapsed=0:00:47.42    frame= 1163 fps= 24 q=-1.0 size=N/A time=00:00:48.42 bitrate=N/A speed=1.01x elapsed=0:00:47.94    frame= 1176 fps= 24 q=-1.0 size=N/A time=00:00:48.96 bitrate=N/A speed=1.01x elapsed=0:00:48.45    frame= 1188 fps= 24 q=-1.0 size=N/A time=00:00:49.46 bitrate=N/A speed=1.01x elapsed=0:00:48.97    frame= 1200 fps= 24 q=-1.0 size=N/A time=00:00:49.96 bitrate=N/A speed=1.01x elapsed=0:00:49.48    frame= 1213 fps= 24 q=-1.0 size=N/A time=00:00:50.46 bitrate=N/A speed=1.01x elapsed=0:00:50.00    frame= 1225 fps= 24 q=-1.0 size=N/A time=00:00:51.00 bitrate=N/A speed=1.01x elapsed=0:00:50.51    frame= 1237 fps= 24 q=-1.0 size=N/A time=00:00:51.50 bitrate=N/A speed=1.01x elapsed=0:00:51.03    frame= 1250 fps= 24 q=-1.0 size=N/A time=00:00:52.06 bitrate=N/A speed=1.01x elapsed=0:00:51.55    frame= 1263 fps= 24 q=-1.0 size=N/A time=00:00:52.56 bitrate=N/A speed=1.01x elapsed=0:00:52.06    frame= 1275 fps= 24 q=-1.0 size=N/A time=00:00:53.06 bitrate=N/A speed=1.01x elapsed=0:00:52.58    frame= 1287 fps= 24 q=-1.0 size=N/A time=00:00:53.60 bitrate=N/A speed=1.01x elapsed=0:00:53.09    frame= 1299 fps= 24 q=-1.0 size=N/A time=00:00:54.10 bitrate=N/A speed=1.01x elapsed=0:00:53.61    frame= 1312 fps= 24 q=-1.0 size=N/A time=00:00:54.64 bitrate=N/A speed=1.01x elapsed=0:00:54.12    frame= 1325 fps= 24 q=-1.0 size=N/A time=00:00:55.14 bitrate=N/A speed=1.01x elapsed=0:00:54.64    frame= 1337 fps= 24 q=-1.0 size=N/A time=00:00:55.64 bitrate=N/A speed=1.01x elapsed=0:00:55.15    frame= 1349 fps= 24 q=-1.0 size=N/A time=00:00:56.18 bitrate=N/A speed=1.01x elapsed=0:00:55.67    frame= 1361 fps= 24 q=-1.0 size=N/A time=00:00:56.68 bitrate=N/A speed=1.01x elapsed=0:00:56.19    [https @ 0000018cfeb58d40] Opening 'https://tv.vodu.me:1995/bein2/iqs/tracks-v1a1/2025/08/04/19/56/24-10420.ts' for reading
[https @ 0000018c803d1b00] Opening 'https://tv.vodu.me:1995/bein2/iqs/tracks-v1a1/mono.m3u8' for reading
[hls @ 0000018cff082c40] Opening 'live\channel_6\stream5.ts' for writing
[hls @ 0000018cff082c40] Opening 'live\channel_6\stream.m3u8.tmp' for writing
frame= 1374 fps= 24 q=-1.0 size=N/A time=00:00:57.22 bitrate=N/A speed=1.01x elapsed=0:00:56.70    frame= 1386 fps= 24 q=-1.0 size=N/A time=00:00:57.72 bitrate=N/A speed=1.01x elapsed=0:00:57.22    frame= 1398 fps= 24 q=-1.0 size=N/A time=00:00:58.22 bitrate=N/A speed=1.01x elapsed=0:00:57.73    frame= 1411 fps= 24 q=-1.0 size=N/A time=00:00:58.76 bitrate=N/A speed=1.01x elapsed=0:00:58.25    frame= 1423 fps= 24 q=-1.0 size=N/A time=00:00:59.26 bitrate=N/A speed=1.01x elapsed=0:00:58.76    frame= 1436 fps= 24 q=-1.0 size=N/A time=00:00:59.80 bitrate=N/A speed=1.01x elapsed=0:00:59.28    frame= 1448 fps= 24 q=-1.0 size=N/A time=00:01:00.30 bitrate=N/A speed=1.01x elapsed=0:00:59.80    frame= 1461 fps= 24 q=-1.0 size=N/A time=00:01:00.80 bitrate=N/A speed=1.01x elapsed=0:01:00.31    frame= 1473 fps= 24 q=-1.0 size=N/A time=00:01:01.34 bitrate=N/A speed=1.01x elapsed=0:01:00.83    frame= 1485 fps= 24 q=-1.0 size=N/A time=00:01:01.84 bitrate=N/A speed=1.01x elapsed=0:01:01.34    frame= 1498 fps= 24 q=-1.0 size=N/A time=00:01:02.34 bitrate=N/A speed=1.01x elapsed=0:01:01.86    frame= 1510 fps= 24 q=-1.0 size=N/A time=00:01:02.88 bitrate=N/A speed=1.01x elapsed=0:01:02.37    frame= 1523 fps= 24 q=-1.0 size=N/A time=00:01:03.38 bitrate=N/A speed=1.01x elapsed=0:01:02.89    frame= 1535 fps= 24 q=-1.0 size=N/A time=00:01:03.92 bitrate=N/A speed=1.01x elapsed=0:01:03.40    frame= 1547 fps= 24 q=-1.0 size=N/A time=00:01:04.42 bitrate=N/A speed=1.01x elapsed=0:01:03.92    frame= 1560 fps= 24 q=-1.0 size=N/A time=00:01:04.92 bitrate=N/A speed=1.01x elapsed=0:01:04.44    frame= 1572 fps= 24 q=-1.0 size=N/A time=00:01:05.46 bitrate=N/A speed=1.01x elapsed=0:01:04.95    frame= 1584 fps= 24 q=-1.0 size=N/A time=00:01:05.96 bitrate=N/A speed=1.01x elapsed=0:01:05.47    frame= 1596 fps= 24 q=-1.0 size=N/A time=00:01:06.46 bitrate=N/A speed=1.01x elapsed=0:01:05.98    frame= 1609 fps= 24 q=-1.0 size=N/A time=00:01:07.00 bitrate=N/A speed=1.01x elapsed=0:01:06.50    [https @ 0000018cfefb11c0] Opening 'https://tv.vodu.me:1995/bein2/iqs/tracks-v1a1/2025/08/04/19/56/35-10420.ts' for reading
[hls @ 0000018cff082c40] Opening 'live\channel_6\stream6.ts' for writing
[hls @ 0000018cff082c40] Opening 'live\channel_6\stream.m3u8.tmp' for writing
frame= 1621 fps= 24 q=-1.0 size=N/A time=00:01:07.50 bitrate=N/A speed=1.01x elapsed=0:01:07.01    frame= 1633 fps= 24 q=-1.0 size=N/A time=00:01:08.00 bitrate=N/A speed=1.01x elapsed=0:01:07.53    frame= 1645 fps= 24 q=-1.0 size=N/A time=00:01:08.50 bitrate=N/A speed=1.01x elapsed=0:01:08.05    frame= 1658 fps= 24 q=-1.0 size=N/A time=00:01:09.06 bitrate=N/A speed=1.01x elapsed=0:01:08.56    frame= 1671 fps= 24 q=-1.0 size=N/A time=00:01:09.60 bitrate=N/A speed=1.01x elapsed=0:01:09.08    frame= 1683 fps= 24 q=-1.0 size=N/A time=00:01:10.10 bitrate=N/A speed=1.01x elapsed=0:01:09.59    frame= 1695 fps= 24 q=-1.0 size=N/A time=00:01:10.60 bitrate=N/A speed=1.01x elapsed=0:01:10.11    frame= 1708 fps= 24 q=-1.0 size=N/A time=00:01:11.10 bitrate=N/A speed=1.01x elapsed=0:01:10.62    frame= 1720 fps= 24 q=-1.0 size=N/A time=00:01:11.64 bitrate=N/A speed=1.01x elapsed=0:01:11.14    frame= 1732 fps= 24 q=-1.0 size=N/A time=00:01:12.14 bitrate=N/A speed=1.01x elapsed=0:01:11.65    frame= 1745 fps= 24 q=-1.0 size=N/A time=00:01:12.68 bitrate=N/A speed=1.01x elapsed=0:01:12.17    frame= 1757 fps= 24 q=-1.0 size=N/A time=00:01:13.18 bitrate=N/A speed=1.01x elapsed=0:01:12.69    frame= 1770 fps= 24 q=-1.0 size=N/A time=00:01:13.72 bitrate=N/A speed=1.01x elapsed=0:01:13.20    frame= 1782 fps= 24 q=-1.0 size=N/A time=00:01:14.22 bitrate=N/A speed=1.01x elapsed=0:01:13.72    frame= 1795 fps= 24 q=-1.0 size=N/A time=00:01:14.72 bitrate=N/A speed=1.01x elapsed=0:01:14.23    frame= 1807 fps= 24 q=-1.0 size=N/A time=00:01:15.26 bitrate=N/A speed=1.01x elapsed=0:01:14.75    frame= 1820 fps= 24 q=-1.0 size=N/A time=00:01:15.76 bitrate=N/A speed=1.01x elapsed=0:01:15.26    frame= 1832 fps= 24 q=-1.0 size=N/A time=00:01:16.30 bitrate=N/A speed=1.01x elapsed=0:01:15.78    frame= 1844 fps= 24 q=-1.0 size=N/A time=00:01:16.80 bitrate=N/A speed=1.01x elapsed=0:01:16.30    frame= 1856 fps= 24 q=-1.0 size=N/A time=00:01:17.30 bitrate=N/A speed=1.01x elapsed=0:01:16.81    [https @ 0000018c803d1b00] Opening 'https://tv.vodu.me:1995/bein2/iqs/tracks-v1a1/mono.m3u8' for reading
[https @ 0000018cfeb58d40] Opening 'https://tv.vodu.me:1995/bein2/iqs/tracks-v1a1/2025/08/04/19/56/45-10420.ts' for reading
[hls @ 0000018cff082c40] Opening 'live\channel_6\stream7.ts' for writing
[hls @ 0000018cff082c40] Opening 'live\channel_6\stream.m3u8.tmp' for writing
frame= 1869 fps= 24 q=-1.0 size=N/A time=00:01:17.84 bitrate=N/A speed=1.01x elapsed=0:01:17.33    frame= 1881 fps= 24 q=-1.0 size=N/A time=00:01:18.34 bitrate=N/A speed=1.01x elapsed=0:01:17.84    frame= 1894 fps= 24 q=-1.0 size=N/A time=00:01:18.88 bitrate=N/A speed=1.01x elapsed=0:01:18.36    frame= 1906 fps= 24 q=-1.0 size=N/A time=00:01:19.38 bitrate=N/A speed=1.01x elapsed=0:01:18.87    frame= 1919 fps= 24 q=-1.0 size=N/A time=00:01:19.88 bitrate=N/A speed=1.01x elapsed=0:01:19.39    frame= 1931 fps= 24 q=-1.0 size=N/A time=00:01:20.42 bitrate=N/A speed=1.01x elapsed=0:01:19.90    frame= 1943 fps= 24 q=-1.0 size=N/A time=00:01:20.92 bitrate=N/A speed=1.01x elapsed=0:01:20.42    frame= 1956 fps= 24 q=-1.0 size=N/A time=00:01:21.46 bitrate=N/A speed=1.01x elapsed=0:01:20.94    frame= 1968 fps= 24 q=-1.0 size=N/A time=00:01:21.96 bitrate=N/A speed=1.01x elapsed=0:01:21.46    frame= 1980 fps= 24 q=-1.0 size=N/A time=00:01:22.46 bitrate=N/A speed=1.01x elapsed=0:01:21.96    frame= 1992 fps= 24 q=-1.0 size=N/A time=00:01:22.96 bitrate=N/A speed=1.01x elapsed=0:01:22.48    frame= 2005 fps= 24 q=-1.0 size=N/A time=00:01:23.46 bitrate=N/A speed=1.01x elapsed=0:01:22.99    frame= 2017 fps= 24 q=-1.0 size=N/A time=00:01:24.00 bitrate=N/A speed=1.01x elapsed=0:01:23.51    frame= 2029 fps= 24 q=-1.0 size=N/A time=00:01:24.50 bitrate=N/A speed=1.01x elapsed=0:01:24.03    frame= 2042 fps= 24 q=-1.0 size=N/A time=00:01:25.06 bitrate=N/A speed=1.01x elapsed=0:01:24.54    frame= 2054 fps= 24 q=-1.0 size=N/A time=00:01:25.56 bitrate=N/A speed=1.01x elapsed=0:01:25.06    frame= 2067 fps= 24 q=-1.0 size=N/A time=00:01:26.10 bitrate=N/A speed=1.01x elapsed=0:01:25.57    frame= 2079 fps= 24 q=-1.0 size=N/A time=00:01:26.56 bitrate=N/A speed=1.01x elapsed=0:01:26.09    frame= 2091 fps= 24 q=-1.0 size=N/A time=00:01:27.10 bitrate=N/A speed=1.01x elapsed=0:01:26.60    frame= 2104 fps= 24 q=-1.0 size=N/A time=00:01:27.64 bitrate=N/A speed=1.01x elapsed=0:01:27.12    [https @ 0000018c803d1b00] Opening 'https://tv.vodu.me:1995/bein2/iqs/tracks-v1a1/mono.m3u8' for reading
[https @ 0000018cfefb11c0] Opening 'https://tv.vodu.me:1995/bein2/iqs/tracks-v1a1/2025/08/04/19/56/55-10400.ts' for reading
frame= 2116 fps= 24 q=-1.0 size=N/A time=00:01:28.14 bitrate=N/A speed=1.01x elapsed=0:01:27.63    [hls @ 0000018cff082c40] Opening 'live\channel_6\stream8.ts' for writing
[hls @ 0000018cff082c40] Opening 'live\channel_6\stream.m3u8.tmp' for writing
frame= 2129 fps= 24 q=-1.0 size=N/A time=00:01:28.68 bitrate=N/A speed=1.01x elapsed=0:01:28.15    frame= 2140 fps= 24 q=-1.0 size=N/A time=00:01:29.14 bitrate=N/A speed=1.01x elapsed=0:01:28.67    frame= 2153 fps= 24 q=-1.0 size=N/A time=00:01:29.68 bitrate=N/A speed=1.01x elapsed=0:01:29.18    frame= 2166 fps= 24 q=-1.0 size=N/A time=00:01:30.22 bitrate=N/A speed=1.01x elapsed=0:01:29.70    frame= 2178 fps= 24 q=-1.0 size=N/A time=00:01:30.72 bitrate=N/A speed=1.01x elapsed=0:01:30.21    frame= 2191 fps= 24 q=-1.0 size=N/A time=00:01:31.26 bitrate=N/A speed=1.01x elapsed=0:01:30.73    frame= 2203 fps= 24 q=-1.0 size=N/A time=00:01:31.76 bitrate=N/A speed=1.01x elapsed=0:01:31.24    frame= 2215 fps= 24 q=-1.0 size=N/A time=00:01:32.26 bitrate=N/A speed=1.01x elapsed=0:01:31.76    frame= 2227 fps= 24 q=-1.0 size=N/A time=00:01:32.76 bitrate=N/A speed=1.01x elapsed=0:01:32.27    frame= 2240 fps= 24 q=-1.0 size=N/A time=00:01:33.30 bitrate=N/A speed=1.01x elapsed=0:01:32.79    frame= 2252 fps= 24 q=-1.0 size=N/A time=00:01:33.80 bitrate=N/A speed=1.01x elapsed=0:01:33.31    frame= 2265 fps= 24 q=-1.0 size=N/A time=00:01:34.34 bitrate=N/A speed=1.01x elapsed=0:01:33.82    frame= 2277 fps= 24 q=-1.0 size=N/A time=00:01:34.84 bitrate=N/A speed=1.01x elapsed=0:01:34.34    frame= 2289 fps= 24 q=-1.0 size=N/A time=00:01:35.34 bitrate=N/A speed=1.01x elapsed=0:01:34.85    frame= 2302 fps= 24 q=-1.0 size=N/A time=00:01:35.88 bitrate=N/A speed=1.01x elapsed=0:01:35.37    frame= 2314 fps= 24 q=-1.0 size=N/A time=00:01:36.38 bitrate=N/A speed=1.01x elapsed=0:01:35.88    frame= 2327 fps= 24 q=-1.0 size=N/A time=00:01:36.92 bitrate=N/A speed=1.01x elapsed=0:01:36.40    frame= 2340 fps= 24 q=-1.0 size=N/A time=00:01:37.42 bitrate=N/A speed=1.01x elapsed=0:01:36.92    frame= 2351 fps= 24 q=-1.0 size=N/A time=00:01:37.92 bitrate=N/A speed=   1x elapsed=0:01:37.43    frame= 2364 fps= 24 q=-1.0 size=N/A time=00:01:38.46 bitrate=N/A speed=1.01x elapsed=0:01:37.95    [https @ 0000018c803d1b00] Opening 'https://tv.vodu.me:1995/bein2/iqs/tracks-v1a1/mono.m3u8' for reading
[https @ 0000018cfeb58d40] Opening 'https://tv.vodu.me:1995/bein2/iqs/tracks-v1a1/2025/08/04/19/57/06-10420.ts' for reading
[hls @ 0000018cff082c40] Opening 'live\channel_6\stream9.ts' for writing
[hls @ 0000018cff082c40] Opening 'live\channel_6\stream.m3u8.tmp' for writing
frame= 2376 fps= 24 q=-1.0 size=N/A time=00:01:38.96 bitrate=N/A speed=   1x elapsed=0:01:38.47    frame= 2388 fps= 24 q=-1.0 size=N/A time=00:01:39.46 bitrate=N/A speed=   1x elapsed=0:01:38.98    frame= 2400 fps= 24 q=-1.0 size=N/A time=00:01:39.96 bitrate=N/A speed=   1x elapsed=0:01:39.49    frame= 2413 fps= 24 q=-1.0 size=N/A time=00:01:40.50 bitrate=N/A speed=   1x elapsed=0:01:40.01    frame= 2426 fps= 24 q=-1.0 size=N/A time=00:01:41.06 bitrate=N/A speed=1.01x elapsed=0:01:40.53    frame= 2438 fps= 24 q=-1.0 size=N/A time=00:01:41.56 bitrate=N/A speed=1.01x elapsed=0:01:41.05    frame= 2451 fps= 24 q=-1.0 size=N/A time=00:01:42.06 bitrate=N/A speed=   1x elapsed=0:01:41.56    frame= 2463 fps= 24 q=-1.0 size=N/A time=00:01:42.56 bitrate=N/A speed=   1x elapsed=0:01:42.08    frame= 2475 fps= 24 q=-1.0 size=N/A time=00:01:43.10 bitrate=N/A speed=   1x elapsed=0:01:42.59    frame= 2488 fps= 24 q=-1.0 size=N/A time=00:01:43.60 bitrate=N/A speed=   1x elapsed=0:01:43.11    frame= 2500 fps= 24 q=-1.0 size=N/A time=00:01:44.14 bitrate=N/A speed=   1x elapsed=0:01:43.62    frame= 2513 fps= 24 q=-1.0 size=N/A time=00:01:44.64 bitrate=N/A speed=   1x elapsed=0:01:44.14    frame= 2525 fps= 24 q=-1.0 size=N/A time=00:01:45.14 bitrate=N/A speed=   1x elapsed=0:01:44.66    frame= 2537 fps= 24 q=-1.0 size=N/A time=00:01:45.68 bitrate=N/A speed=   1x elapsed=0:01:45.17    frame= 2549 fps= 24 q=-1.0 size=N/A time=00:01:46.18 bitrate=N/A speed=   1x elapsed=0:01:45.69    frame= 2562 fps= 24 q=-1.0 size=N/A time=00:01:46.72 bitrate=N/A speed=   1x elapsed=0:01:46.20    frame= 2575 fps= 24 q=-1.0 size=N/A time=00:01:47.22 bitrate=N/A speed=   1x elapsed=0:01:46.72    frame= 2587 fps= 24 q=-1.0 size=N/A time=00:01:47.72 bitrate=N/A speed=   1x elapsed=0:01:47.23    frame= 2599 fps= 24 q=-1.0 size=N/A time=00:01:48.26 bitrate=N/A speed=   1x elapsed=0:01:47.75    frame= 2611 fps= 24 q=-1.0 size=N/A time=00:01:48.76 bitrate=N/A speed=   1x elapsed=0:01:48.26    [https @ 0000018cfefb11c0] Opening 'https://tv.vodu.me:1995/bein2/iqs/tracks-v1a1/2025/08/04/19/57/16-10420.ts' for reading
[hls @ 0000018cff082c40] Opening 'live\channel_6\stream10.ts' for writing
[hls @ 0000018cff082c40] Opening 'live\channel_6\stream.m3u8.tmp' for writing
frame= 2624 fps= 24 q=-1.0 size=N/A time=00:01:49.30 bitrate=N/A speed=   1x elapsed=0:01:48.78    frame= 2636 fps= 24 q=-1.0 size=N/A time=00:01:49.80 bitrate=N/A speed=   1x elapsed=0:01:49.30    frame= 2649 fps= 24 q=-1.0 size=N/A time=00:01:50.30 bitrate=N/A speed=   1x elapsed=0:01:49.81    frame= 2660 fps= 24 q=-1.0 size=N/A time=00:01:50.80 bitrate=N/A speed=   1x elapsed=0:01:50.33    frame= 2673 fps= 24 q=-1.0 size=N/A time=00:01:51.34 bitrate=N/A speed=   1x elapsed=0:01:50.84    frame= 2686 fps= 24 q=-1.0 size=N/A time=00:01:51.88 bitrate=N/A speed=   1x elapsed=0:01:51.36    frame= 2698 fps= 24 q=-1.0 size=N/A time=00:01:52.38 bitrate=N/A speed=   1x elapsed=0:01:51.87    frame= 2710 fps= 24 q=-1.0 size=N/A time=00:01:52.88 bitrate=N/A speed=   1x elapsed=0:01:52.39    frame= 2723 fps= 24 q=-1.0 size=N/A time=00:01:53.42 bitrate=N/A speed=   1x elapsed=0:01:52.91    frame= 2735 fps= 24 q=-1.0 size=N/A time=00:01:53.92 bitrate=N/A speed=   1x elapsed=0:01:53.42    frame= 2748 fps= 24 q=-1.0 size=N/A time=00:01:54.46 bitrate=N/A speed=   1x elapsed=0:01:53.94    frame= 2760 fps= 24 q=-1.0 size=N/A time=00:01:54.96 bitrate=N/A speed=   1x elapsed=0:01:54.45    frame= 2772 fps= 24 q=-1.0 size=N/A time=00:01:55.46 bitrate=N/A speed=   1x elapsed=0:01:54.97    frame= 2784 fps= 24 q=-1.0 size=N/A time=00:01:55.96 bitrate=N/A speed=   1x elapsed=0:01:55.48    frame= 2797 fps= 24 q=-1.0 size=N/A time=00:01:56.50 bitrate=N/A speed=   1x elapsed=0:01:55.99    frame= 2809 fps= 24 q=-1.0 size=N/A time=00:01:57.00 bitrate=N/A speed=   1x elapsed=0:01:56.52    frame= 2821 fps= 24 q=-1.0 size=N/A time=00:01:57.50 bitrate=N/A speed=   1x elapsed=0:01:57.04    frame= 2834 fps= 24 q=-1.0 size=N/A time=00:01:58.06 bitrate=N/A speed=   1x elapsed=0:01:57.54    frame= 2846 fps= 24 q=-1.0 size=N/A time=00:01:58.56 bitrate=N/A speed=   1x elapsed=0:01:58.06    frame= 2859 fps= 24 q=-1.0 size=N/A time=00:01:59.10 bitrate=N/A speed=   1x elapsed=0:01:58.58    [https @ 0000018c803d1b00] Opening 'https://tv.vodu.me:1995/bein2/iqs/tracks-v1a1/mono.m3u8' for reading
[https @ 0000018cfeb58d40] Opening 'https://tv.vodu.me:1995/bein2/iqs/tracks-v1a1/2025/08/04/19/57/27-10420.ts' for reading
[hls @ 0000018cff082c40] Opening 'live\channel_6\stream11.ts' for writing
[hls @ 0000018cff082c40] Opening 'live\channel_6\stream.m3u8.tmp' for writing
frame= 2871 fps= 24 q=-1.0 size=N/A time=00:01:59.60 bitrate=N/A speed=   1x elapsed=0:01:59.09    frame= 2883 fps= 24 q=-1.0 size=N/A time=00:02:00.10 bitrate=N/A speed=   1x elapsed=0:01:59.61    frame= 2896 fps= 24 q=-1.0 size=N/A time=00:02:00.60 bitrate=N/A speed=   1x elapsed=0:02:00.12    frame= 2908 fps= 24 q=-1.0 size=N/A time=00:02:01.14 bitrate=N/A speed=   1x elapsed=0:02:00.64    frame= 2921 fps= 24 q=-1.0 size=N/A time=00:02:01.68 bitrate=N/A speed=   1x elapsed=0:02:01.15    frame= 2933 fps= 24 q=-1.0 size=N/A time=00:02:02.18 bitrate=N/A speed=   1x elapsed=0:02:01.67    frame= 2946 fps= 24 q=-1.0 size=N/A time=00:02:02.68 bitrate=N/A speed=   1x elapsed=0:02:02.19    frame= 2958 fps= 24 q=-1.0 size=N/A time=00:02:03.18 bitrate=N/A speed=   1x elapsed=0:02:02.70    frame= 2970 fps= 24 q=-1.0 size=N/A time=00:02:03.72 bitrate=N/A speed=   1x elapsed=0:02:03.22    frame= 2983 fps= 24 q=-1.0 size=N/A time=00:02:04.26 bitrate=N/A speed=   1x elapsed=0:02:03.73    frame= 2995 fps= 24 q=-1.0 size=N/A time=00:02:04.76 bitrate=N/A speed=   1x elapsed=0:02:04.25    frame= 3007 fps= 24 q=-1.0 size=N/A time=00:02:05.26 bitrate=N/A speed=   1x elapsed=0:02:04.76    frame= 3020 fps= 24 q=-1.0 size=N/A time=00:02:05.76 bitrate=N/A speed=   1x elapsed=0:02:05.28    frame= 3032 fps= 24 q=-1.0 size=N/A time=00:02:06.30 bitrate=N/A speed=   1x elapsed=0:02:05.79    frame= 3045 fps= 24 q=-1.0 size=N/A time=00:02:06.80 bitrate=N/A speed=   1x elapsed=0:02:06.32    frame= 3057 fps= 24 q=-1.0 size=N/A time=00:02:07.34 bitrate=N/A speed=   1x elapsed=0:02:06.82    frame= 3070 fps= 24 q=-1.0 size=N/A time=00:02:07.84 bitrate=N/A speed=   1x elapsed=0:02:07.34    frame= 3082 fps= 24 q=-1.0 size=N/A time=00:02:08.34 bitrate=N/A speed=   1x elapsed=0:02:07.86    frame= 3094 fps= 24 q=-1.0 size=N/A time=00:02:08.88 bitrate=N/A speed=   1x elapsed=0:02:08.37    frame= 3106 fps= 24 q=-1.0 size=N/A time=00:02:09.38 bitrate=N/A speed=   1x elapsed=0:02:08.89    [https @ 0000018cfefb11c0] Opening 'https://tv.vodu.me:1995/bein2/iqs/tracks-v1a1/2025/08/04/19/57/37-10420.ts' for reading
[https @ 0000018c803d1b00] Opening 'https://tv.vodu.me:1995/bein2/iqs/tracks-v1a1/mono.m3u8' for reading
[hls @ 0000018cff082c40] Opening 'live\channel_6\stream12.ts' for writing
[hls @ 0000018cff082c40] Opening 'live\channel_6\stream.m3u8.tmp' for writing
frame= 3119 fps= 24 q=-1.0 size=N/A time=00:02:09.92 bitrate=N/A speed=   1x elapsed=0:02:09.40    frame= 3131 fps= 24 q=-1.0 size=N/A time=00:02:10.42 bitrate=N/A speed=   1x elapsed=0:02:09.92    frame= 3144 fps= 24 q=-1.0 size=N/A time=00:02:10.92 bitrate=N/A speed=   1x elapsed=0:02:10.43    frame= 3156 fps= 24 q=-1.0 size=N/A time=00:02:11.46 bitrate=N/A speed=   1x elapsed=0:02:10.95    frame= 3168 fps= 24 q=-1.0 size=N/A time=00:02:11.96 bitrate=N/A speed=   1x elapsed=0:02:11.47    frame= 3181 fps= 24 q=-1.0 size=N/A time=00:02:12.46 bitrate=N/A speed=   1x elapsed=0:02:11.98    frame= 3192 fps= 24 q=-1.0 size=N/A time=00:02:12.96 bitrate=N/A speed=   1x elapsed=0:02:12.50    frame= 3205 fps= 24 q=-1.0 size=N/A time=00:02:13.50 bitrate=N/A speed=   1x elapsed=0:02:13.01    frame= 3217 fps= 24 q=-1.0 size=N/A time=00:02:14.00 bitrate=N/A speed=   1x elapsed=0:02:13.53    frame= 3230 fps= 24 q=-1.0 size=N/A time=00:02:14.56 bitrate=N/A speed=   1x elapsed=0:02:14.04    frame= 3242 fps= 24 q=-1.0 size=N/A time=00:02:15.06 bitrate=N/A speed=   1x elapsed=0:02:14.56    frame= 3255 fps= 24 q=-1.0 size=N/A time=00:02:15.56 bitrate=N/A speed=   1x elapsed=0:02:15.07    frame= 3267 fps= 24 q=-1.0 size=N/A time=00:02:16.10 bitrate=N/A speed=   1x elapsed=0:02:15.59    frame= 3279 fps= 24 q=-1.0 size=N/A time=00:02:16.60 bitrate=N/A speed=   1x elapsed=0:02:16.11    frame= 3292 fps= 24 q=-1.0 size=N/A time=00:02:17.14 bitrate=N/A speed=   1x elapsed=0:02:16.62    frame= 3305 fps= 24 q=-1.0 size=N/A time=00:02:17.64 bitrate=N/A speed=   1x elapsed=0:02:17.14    frame= 3317 fps= 24 q=-1.0 size=N/A time=00:02:18.14 bitrate=N/A speed=   1x elapsed=0:02:17.65    frame= 3329 fps= 24 q=-1.0 size=N/A time=00:02:18.68 bitrate=N/A speed=   1x elapsed=0:02:18.17    frame= 3341 fps= 24 q=-1.0 size=N/A time=00:02:19.18 bitrate=N/A speed=   1x elapsed=0:02:18.68    frame= 3354 fps= 24 q=-1.0 size=N/A time=00:02:19.72 bitrate=N/A speed=   1x elapsed=0:02:19.20    [https @ 0000018c803d1b00] Opening 'https://tv.vodu.me:1995/bein2/iqs/tracks-v1a1/mono.m3u8' for reading
[https @ 0000018cfeb58d40] Opening 'https://tv.vodu.me:1995/bein2/iqs/tracks-v1a1/2025/08/04/19/57/48-10420.ts' for reading
frame= 3366 fps= 24 q=-1.0 size=N/A time=00:02:20.22 bitrate=N/A speed=   1x elapsed=0:02:19.71    [hls @ 0000018cff082c40] Opening 'live\channel_6\stream13.ts' for writing
[hls @ 0000018cff082c40] Opening 'live\channel_6\stream.m3u8.tmp' for writing
frame= 3379 fps= 24 q=-1.0 size=N/A time=00:02:20.72 bitrate=N/A speed=   1x elapsed=0:02:20.23    